<svg width="41" height="41" viewBox="0 0 41 41" fill="none" xmlns="http://www.w3.org/2000/svg">
<path d="M34.85 12.2998H32.8V6.14991C32.8 4.51886 32.1521 2.9546 30.9987 1.80127C29.8454 0.647936 28.2811 0 26.65 0H6.15C4.51892 0 2.95464 0.647936 1.80129 1.80127C0.647945 2.9546 0 4.51886 0 6.14991V30.7496C0.00202024 31.1543 0.123795 31.5493 0.349978 31.885C0.576161 32.2206 0.896631 32.4818 1.271 32.6355C1.51429 32.7503 1.78109 32.8065 2.05 32.7995C2.31979 32.8011 2.58724 32.7494 2.83701 32.6474C3.08678 32.5454 3.31395 32.395 3.5055 32.205L9.266 26.4241H12.3V29.3761C12.3 31.0071 12.9479 32.5714 14.1013 33.7247C15.2546 34.8781 16.8189 35.526 18.45 35.526H32.636L37.4945 40.4049C37.6861 40.5949 37.9132 40.7452 38.163 40.8473C38.4128 40.9493 38.6802 41.001 38.95 40.9994C39.2189 41.0064 39.4857 40.9502 39.729 40.8354C40.1034 40.6816 40.4238 40.4205 40.65 40.0849C40.8762 39.7492 40.998 39.3542 41 38.9495V18.4497C41 16.8187 40.3521 15.2544 39.1987 14.1011C38.0454 12.9478 36.4811 12.2998 34.85 12.2998ZM12.3 18.4497V22.3242H8.4255C8.15571 22.3226 7.88826 22.3743 7.63849 22.4764C7.38872 22.5784 7.16155 22.7287 6.97 22.9187L4.1 25.8091V6.14991C4.1 5.60623 4.31598 5.08481 4.70043 4.70037C5.08488 4.31592 5.60631 4.09994 6.15 4.09994H26.65C27.1937 4.09994 27.7151 4.31592 28.0996 4.70037C28.484 5.08481 28.7 5.60623 28.7 6.14991V12.2998H18.45C16.8189 12.2998 15.2546 12.9478 14.1013 14.1011C12.9479 15.2544 12.3 16.8187 12.3 18.4497ZM36.9 34.009L34.85 31.9591C34.6601 31.7654 34.4337 31.6113 34.1839 31.5057C33.934 31.4001 33.6657 31.3452 33.3945 31.3441H18.45C17.9063 31.3441 17.3849 31.1281 17.0004 30.7436C16.616 30.3592 16.4 29.8378 16.4 29.2941V18.4497C16.4 17.9061 16.616 17.3846 17.0004 17.0002C17.3849 16.6157 17.9063 16.3998 18.45 16.3998H34.85C35.3937 16.3998 35.9151 16.6157 36.2996 17.0002C36.684 17.3846 36.9 17.9061 36.9 18.4497V34.009Z" fill="black"/>
</svg>
