<svg width="37" height="44" viewBox="0 0 37 44" fill="none" xmlns="http://www.w3.org/2000/svg">
<path d="M31.6008 5.45097C28.1293 1.96077 23.4208 -3.67752e-08 18.5113 0C13.6018 3.67752e-08 8.89339 1.96077 5.42184 5.45097C1.95029 8.94117 3.65787e-08 13.6749 0 18.6108C-3.65787e-08 23.5467 1.95029 28.2804 5.42184 31.7706L16.9188 43.3512C17.1216 43.5568 17.3629 43.72 17.6287 43.8313C17.8946 43.9427 18.1797 44 18.4677 44C18.7557 44 19.0408 43.9427 19.3067 43.8313C19.5725 43.72 19.8138 43.5568 20.0166 43.3512L31.6008 31.6609C35.0579 28.1853 37 23.4713 37 18.556C37 13.6406 35.0579 8.92665 31.6008 5.45097ZM28.4812 28.5245L18.5113 38.5918L8.5415 28.5245C6.57185 26.5425 5.2309 24.0178 4.68817 21.2697C4.14543 18.5216 4.42527 15.6734 5.49232 13.0852C6.55936 10.4969 8.3657 8.28483 10.683 6.72852C13.0003 5.17221 15.7245 4.34156 18.5113 4.34156C21.2981 4.34156 24.0223 5.17221 26.3396 6.72852C28.657 8.28483 30.4633 10.4969 31.5303 13.0852C32.5974 15.6734 32.8772 18.5216 32.3345 21.2697C31.7918 24.0178 30.4508 26.5425 28.4812 28.5245ZM11.9666 11.8773C10.2054 13.6534 9.21647 16.059 9.21647 18.5669C9.21647 21.0748 10.2054 23.4804 11.9666 25.2565C13.275 26.5742 14.9414 27.4741 16.7566 27.8433C18.5718 28.2125 20.455 28.0345 22.17 27.3317C23.885 26.6289 25.3553 25.4326 26.3966 23.8928C27.4379 22.353 28.0037 20.5384 28.023 18.6766C28.0329 17.4334 27.7947 16.2009 27.3225 15.0519C26.8504 13.9029 26.1539 12.8607 25.2742 11.987C24.4096 11.0978 23.3786 10.3893 22.2406 9.9022C21.1025 9.41513 19.8799 9.15913 18.6431 9.14894C17.4063 9.13875 16.1797 9.37456 15.0338 9.84281C13.888 10.3111 12.8456 11.0025 11.9666 11.8773ZM22.1982 22.142C21.3715 22.9859 20.2789 23.5148 19.1072 23.6384C17.9355 23.762 16.7575 23.4725 15.7746 22.8196C14.7916 22.1666 14.0648 21.1906 13.7184 20.0585C13.372 18.9265 13.4275 17.7085 13.8754 16.613C14.3233 15.5175 15.1358 14.6124 16.174 14.0525C17.2121 13.4926 18.4115 13.3127 19.5671 13.5434C20.7226 13.7742 21.7626 14.4013 22.5091 15.3176C23.2556 16.2339 23.6624 17.3825 23.6599 18.5669C23.6281 19.9208 23.0632 21.2066 22.0891 22.142H22.1982Z" fill="black"/>
</svg>
