<svg width="38" height="38" viewBox="0 0 38 38" fill="none" xmlns="http://www.w3.org/2000/svg">
<path d="M29.4052 8.651L24.0119 3.25611C23.8354 3.07806 23.6253 2.93674 23.3939 2.8403C23.1625 2.74386 22.9143 2.6942 22.6636 2.6942C22.4129 2.6942 22.1646 2.74386 21.9332 2.8403C21.7018 2.93674 21.4918 3.07806 21.3152 3.25611C20.9615 3.61202 20.763 4.09348 20.763 4.59533C20.763 5.09718 20.9615 5.57864 21.3152 5.93456L25.3412 9.96173L9.95885 25.3486L5.93284 21.3214C5.57703 20.9676 5.09571 20.769 4.594 20.769C4.0923 20.769 3.61098 20.9676 3.25516 21.3214C3.07717 21.498 2.93589 21.7081 2.83948 21.9396C2.74306 22.1711 2.69343 22.4193 2.69343 22.6701C2.69343 22.9209 2.74306 23.1692 2.83948 23.4007C2.93589 23.6321 3.07717 23.8422 3.25516 24.0188L8.59153 29.3567L13.9279 34.6946C14.1038 34.8741 14.3135 35.0169 14.545 35.1148C14.7764 35.2126 15.025 35.2635 15.2762 35.2645C15.6534 35.2667 16.0227 35.1565 16.3371 34.9479C16.6514 34.7393 16.8965 34.4419 17.0412 34.0934C17.1858 33.7449 17.2234 33.3612 17.1492 32.9913C17.075 32.6214 16.8924 32.2819 16.6246 32.0162L12.6555 28.046L28.0379 12.6592L32.0639 16.6863C32.241 16.8622 32.4509 17.0015 32.6818 17.0962C32.9127 17.1909 33.1599 17.2392 33.4095 17.2383C33.659 17.2374 33.9059 17.1874 34.1361 17.091C34.3663 16.9947 34.5753 16.854 34.7511 16.6768C34.9269 16.4997 35.0661 16.2897 35.1608 16.0588C35.2555 15.8278 35.3038 15.5805 35.3029 15.3309C35.302 15.0813 35.252 14.8343 35.1557 14.6041C35.0594 14.3738 34.9187 14.1648 34.7416 13.9889L29.4052 8.651ZM3.25516 29.3757C2.89756 29.018 2.41255 28.8171 1.90683 28.8171C1.40111 28.8171 0.916098 29.018 0.558498 29.3757C0.200898 29.7334 3.76793e-09 30.2186 0 30.7245C-3.76793e-09 31.2303 0.200898 31.7155 0.558498 32.0732L5.93284 37.4491C6.11029 37.6251 6.32074 37.7644 6.55211 37.859C6.78349 37.9535 7.03124 38.0014 7.28117 38C7.5311 38.0014 7.77886 37.9535 8.01024 37.859C8.24161 37.7644 8.45206 37.6251 8.62951 37.4491C8.8075 37.2725 8.94878 37.0624 9.0452 36.8309C9.14161 36.5994 9.19125 36.3511 9.19125 36.1004C9.19125 35.8496 9.14161 35.6013 9.0452 35.3698C8.94878 35.1383 8.8075 34.9282 8.62951 34.7516L3.25516 29.3757ZM37.4383 5.93456L32.0639 0.558659C31.8869 0.381542 31.6766 0.241046 31.4453 0.145191C31.2139 0.0493358 30.966 0 30.7156 0C30.4652 0 30.2172 0.0493358 29.9859 0.145191C29.7545 0.241046 29.5443 0.381542 29.3673 0.558659C29.1902 0.735776 29.0497 0.946044 28.9539 1.17746C28.8581 1.40887 28.8088 1.6569 28.8088 1.90738C28.8088 2.15786 28.8581 2.40589 28.9539 2.63731C29.0497 2.86872 29.1902 3.07899 29.3673 3.25611L34.7416 8.632C34.9181 8.81005 35.1282 8.95137 35.3596 9.04781C35.591 9.14425 35.8392 9.1939 36.0899 9.1939C36.3406 9.1939 36.5888 9.14425 36.8203 9.04781C37.0517 8.95137 37.2617 8.81005 37.4383 8.632C37.6163 8.45541 37.7575 8.24531 37.854 8.01382C37.9504 7.78234 38 7.53405 38 7.28328C38 7.03251 37.9504 6.78422 37.854 6.55273C37.7575 6.32125 37.6163 6.11115 37.4383 5.93456Z" fill="black"/>
</svg>
