<svg width="40" height="40" viewBox="0 0 40 40" fill="none" xmlns="http://www.w3.org/2000/svg">
<path d="M27.42 8.57988L16.82 19.1797L12.58 14.9398C12.4007 14.7304 12.1801 14.5604 11.9319 14.4403C11.6838 14.3203 11.4135 14.2528 11.1381 14.2422C10.8627 14.2316 10.588 14.278 10.3314 14.3785C10.0747 14.4791 9.84161 14.6316 9.6467 14.8265C9.45179 15.0214 9.29927 15.2545 9.19872 15.5111C9.09818 15.7678 9.05176 16.0424 9.0624 16.3179C9.07304 16.5933 9.1405 16.8636 9.26055 17.1117C9.3806 17.3598 9.55064 17.5805 9.76 17.7598L15.42 23.4197C15.7925 23.7892 16.2953 23.9975 16.82 23.9997C17.0832 24.0012 17.3441 23.9507 17.5878 23.8512C17.8315 23.7517 18.0531 23.605 18.24 23.4197L30.24 11.4198C30.4275 11.2339 30.5762 11.0127 30.6778 10.769C30.7793 10.5253 30.8316 10.2639 30.8316 9.99986C30.8316 9.73584 30.7793 9.47443 30.6778 9.23072C30.5762 8.987 30.4275 8.7658 30.24 8.57988C29.8653 8.20738 29.3584 7.9983 28.83 7.9983C28.3016 7.9983 27.7947 8.20738 27.42 8.57988ZM34 0H6C4.4087 0 2.88258 0.632132 1.75736 1.75733C0.632141 2.88254 0 4.40864 0 5.99992V25.9996C0 27.5909 0.632141 29.117 1.75736 30.2422C2.88258 31.3674 4.4087 31.9996 6 31.9996H29.18L36.58 39.4194C36.7669 39.6048 36.9885 39.7515 37.2322 39.851C37.4759 39.9505 37.7368 40.001 38 39.9994C38.2624 40.0062 38.5226 39.9514 38.76 39.8394C39.1252 39.6894 39.4379 39.4346 39.6586 39.1072C39.8792 38.7797 39.998 38.3943 40 37.9995V5.99992C40 4.40864 39.3679 2.88254 38.2426 1.75733C37.1174 0.632132 35.5913 0 34 0ZM36 33.1795L31.42 28.5796C31.2331 28.3942 31.0115 28.2476 30.7678 28.1481C30.5241 28.0485 30.2632 27.9981 30 27.9996H6C5.46957 27.9996 4.96086 27.7889 4.58579 27.4138C4.21071 27.0388 4 26.5301 4 25.9996V5.99992C4 5.46949 4.21071 4.96079 4.58579 4.58572C4.96086 4.21066 5.46957 3.99994 6 3.99994H34C34.5304 3.99994 35.0391 4.21066 35.4142 4.58572C35.7893 4.96079 36 5.46949 36 5.99992V33.1795Z" fill="black"/>
</svg>
